<?xml version="1.0" encoding="utf-8"?>
<!-- Generator: Adobe Illustrator 26.0.1, SVG Export Plug-In . SVG Version: 6.00 Build 0)  -->
<svg version="1.1" id="Layer_1" xmlns="http://www.w3.org/2000/svg" xmlns:xlink="http://www.w3.org/1999/xlink" x="0px" y="0px"
	 viewBox="0 0 595.28 841.89" style="enable-background:new 0 0 595.28 841.89;" xml:space="preserve">
<style type="text/css">
	.st0{fill:#010101;}
</style>
<path class="st0" d="M359.62,168.84c-1.47-1.83-2.3-3.97-2.15-7.44c0.86-19.33,28.78-20.08,42.31-16.31
	c56.82,15.8,30.42,88.61,5.69,121.22c-3.1,4.08-7.2,12.18-12.34,13.29c-4.33-17.6,3.04-35.59,0.74-53.4
	c-1.23-9.51-5.56-18.34-9.81-26.83c-4.8-9.58-11.12-18.48-19.15-25.62C362.79,171.87,360.94,170.48,359.62,168.84z"/>
<path class="st0" d="M448.03,126.46v9.58c57.39,8.9,34.16,81.43,34.16,81.43l-68.67,159.45l-17.97,41.89c0,23.83,0,47.53,0,71.19
	l40.86-96.31l58.75-141.13l21.1-47.67l12.39-19.58c29.04-48.59,66.62-51.32,66.62-51.32v-7.53H448.03z"/>
<path class="st0" d="M378.41,559.77c0.32-0.89,0.42-1.92,0.75-1.99c16.74-3.99,16.87-4.1,16.88-21.41
	c0.01-14.31-0.15-28.62-0.19-42.93l-40.27,93.77l-22.5-49.79l-70.91-156.87l-66.48-144.25c-13.98-25.24-8.86-45.7-8.86-45.7
	c9.55-39.9,36.14-39.22,36.14-39.22v-8.08H0c0,0,0,7.4,0,7.4c42.06,8.41,71.18,39.94,91.51,75.9c14.49,25.64,25.6,53.24,37.96,79.86
	c8.39,18.08,16.79,36.16,25.18,54.24c20.28,43.68,40.55,87.36,60.83,131.05c14.69,31.64,29.37,63.28,44.06,94.92
	c1.56,3.36,3.12,6.72,4.68,10.08c0,0,54.89,118.68,54.89,118.68h12.27l13.64-28.31l32.73-79.46l20.34-47.89
	C391.47,559.77,384.94,559.77,378.41,559.77z"/>
</svg>
